<svg xmlns="http://www.w3.org/2000/svg" fill="none" viewBox="0 0 24 24" id="Kawaii-Manga-Yugioh-Games-Millennium-Puzzle--Streamline-Ultimate.svg"><desc>Kawaii Manga Yugioh Games Millennium Puzzle Streamline Icon: https://streamlinehq.com</desc><path stroke="#000000" stroke-linecap="round" stroke-linejoin="round" d="M12 23 23 4.91113H1L12 23Z" stroke-width="1.5"></path><path stroke="#000000" d="M12 11.2667c-0.27 0 -0.4889 -0.2189 -0.4889 -0.4889s0.2189 -0.4889 0.4889 -0.4889" stroke-width="1.5"></path><path stroke="#000000" d="M12 11.2667c0.27 0 0.4889 -0.2189 0.4889 -0.4889s-0.2189 -0.4889 -0.4889 -0.4889" stroke-width="1.5"></path><path stroke="#000000" stroke-linecap="round" stroke-linejoin="round" d="M8.57778 9.06665h0.88098" stroke-width="1.5"></path><path stroke="#000000" stroke-linecap="round" stroke-linejoin="round" d="M15.4222 9.06665h-0.881" stroke-width="1.5"></path><path stroke="#000000" stroke-linecap="round" stroke-linejoin="round" d="M8.57778 12.4889h0.88098" stroke-width="1.5"></path><path stroke="#000000" stroke-linecap="round" stroke-linejoin="round" d="M15.4222 12.4889h-0.881" stroke-width="1.5"></path><path stroke="#000000" stroke-linecap="round" stroke-linejoin="round" d="M9.47342 12.4889c0.2545 0.4454 0.62228 0.8157 1.06598 1.0732 0.4437 0.2575 0.9476 0.3931 1.4606 0.3931 0.513 0 1.0169 -0.1356 1.4606 -0.3931s0.8115 -0.6278 1.066 -1.0732" stroke-width="1.5"></path><path stroke="#000000" stroke-linecap="round" stroke-linejoin="round" d="M14.5266 9.06663c-0.2545 -0.44544 -0.6223 -0.81569 -1.066 -1.0732 -0.4437 -0.25752 -0.9476 -0.39315 -1.4606 -0.39315 -0.513 0 -1.0169 0.13563 -1.4606 0.39315 -0.4437 0.25751 -0.81148 0.62776 -1.06598 1.0732" stroke-width="1.5"></path><path stroke="#000000" stroke-linecap="round" stroke-linejoin="round" d="M12 4.91111c1.08 0 1.9556 -0.87553 1.9556 -1.95555C13.9556 1.87553 13.08 1 12 1s-1.9556 0.87553 -1.9556 1.95556c0 1.08002 0.8756 1.95555 1.9556 1.95555Z" stroke-width="1.5"></path></svg>