<svg xmlns="http://www.w3.org/2000/svg" fill="none" viewBox="0 0 24 24" id="Kawaii-Manga-Yugioh-Games-Millennium-Puzzle--Streamline-Ultimate.svg"><desc>Kawaii Manga Yugioh Games Millennium Puzzle Streamline Icon: https://streamlinehq.com</desc><path fill="#000000" d="M23.3743 6.7764c-0.0821 -0.15426 -0.2049 -0.28308 -0.3551 -0.37249 -0.1501 -0.08941 -0.3219 -0.13601 -0.4966 -0.13473h-8.192c0.4797 -0.46573 0.8095 -1.06402 0.9472 -1.71828 0.1377 -0.65426 0.077 -1.33473 -0.1743 -1.95431 -0.2513 -0.61957 -0.6817 -1.15006 -1.2363 -1.52357C13.3127 0.699521 12.6593 0.5 11.9907 0.5c-0.6686 0 -1.322 0.199521 -1.8765 0.57302 -0.55456 0.37351 -0.98502 0.904 -1.23631 1.52357 -0.25129 0.61958 -0.31197 1.30005 -0.17428 1.95431 0.1377 0.65426 0.46751 1.25255 0.94721 1.71828H1.46839c-0.17458 0.00029 -0.34577 0.04833 -0.49501 0.13892 -0.149245 0.0906 -0.270863 0.22029 -0.351689 0.37504 -0.080826 0.15475 -0.117779 0.32867 -0.106858 0.50291 0.010921 0.17425 0.069299 0.34219 0.168814 0.48564L11.2107 23.0838c0.0879 0.1283 0.2058 0.2333 0.3433 0.3058 0.1376 0.0725 0.2908 0.1104 0.4463 0.1104 0.1555 0 0.3087 -0.0379 0.4462 -0.1104 0.1376 -0.0725 0.2554 -0.1775 0.3433 -0.3058L23.3169 7.77169c0.1001 -0.14461 0.1584 -0.314 0.1686 -0.48958 0.0101 -0.17558 -0.0284 -0.35056 -0.1112 -0.50571ZM11.9955 2.44115c0.2839 0 0.5615 0.08419 0.7975 0.24192 0.2361 0.15774 0.4201 0.38194 0.5287 0.64424 0.1087 0.26231 0.1371 0.55094 0.0817 0.8294 -0.0554 0.27847 -0.1921 0.53425 -0.3928 0.73501 -0.2008 0.20076 -0.4566 0.33748 -0.7351 0.39287 -0.2784 0.05539 -0.567 0.02696 -0.8294 -0.08169 -0.2623 -0.10865 -0.4865 -0.29264 -0.6442 -0.52871s-0.2419 -0.51361 -0.2419 -0.79753c0 -0.38072 0.1512 -0.74585 0.4204 -1.01506 0.2692 -0.26921 0.6344 -0.42045 1.0151 -0.42045Zm0 7.41682c-0.3762 -0.00032 -0.7457 0.09972 -1.0704 0.28983 -0.3247 0.1901 -0.5928 0.4633 -0.7766 0.7916 -0.0676 0.1112 -0.16338 0.2026 -0.27768 0.2648 -0.11431 0.0622 -0.24304 0.093 -0.37312 0.0893h-0.86131c-0.19036 0 -0.37292 -0.0756 -0.50753 -0.2102 -0.13461 -0.1347 -0.21023 -0.3172 -0.21023 -0.5076 0 -0.1903 0.07562 -0.3729 0.21023 -0.5075 0.13461 -0.13461 0.31717 -0.21023 0.50753 -0.21023h0.48808c0.33065 -0.45097 0.76289 -0.8177 1.26173 -1.07049 0.4988 -0.25279 1.0501 -0.38452 1.6093 -0.38452 0.5592 0 1.1105 0.13173 1.6093 0.38452 0.4988 0.25279 0.9311 0.61952 1.2617 1.07049h0.4881c0.1904 0 0.3729 0.07562 0.5075 0.21023 0.1346 0.1346 0.2102 0.3172 0.2102 0.5075 0 0.1904 -0.0756 0.3729 -0.2102 0.5076 -0.1346 0.1346 -0.3171 0.2102 -0.5075 0.2102h-0.8709c-0.1256 0.0005 -0.2491 -0.0319 -0.3583 -0.094 -0.1092 -0.0621 -0.2001 -0.1518 -0.2637 -0.2601 -0.1855 -0.3311 -0.4566 -0.6062 -0.7849 -0.7965 -0.3284 -0.19026 -0.7018 -0.28868 -1.0813 -0.28493Zm1.1963 2.87103c0 0.2366 -0.0702 0.4679 -0.2017 0.6646 -0.1314 0.1967 -0.3182 0.3501 -0.5368 0.4406 -0.2186 0.0905 -0.4591 0.1142 -0.6912 0.0681 -0.232 -0.0462 -0.4452 -0.1601 -0.6125 -0.3274 -0.1673 -0.1673 -0.2812 -0.3805 -0.3274 -0.6125 -0.0461 -0.2321 -0.0225 -0.4726 0.0681 -0.6912 0.0905 -0.2186 0.2439 -0.4054 0.4406 -0.5369 0.1967 -0.1314 0.428 -0.2016 0.6646 -0.2016 0.3156 0.0026 0.6174 0.1297 0.8397 0.3538 0.2223 0.224 0.347 0.5269 0.347 0.8425h0.0096Zm-5.27317 2.1533c0.00248 -0.1896 0.0789 -0.3708 0.21297 -0.5048 0.13407 -0.1341 0.3152 -0.2105 0.50479 -0.213h0.95701c0.11278 0.0109 0.22153 0.0476 0.3178 0.1074 0.0963 0.0597 0.1775 0.1409 0.2373 0.2371 0.1848 0.3286 0.4537 0.6022 0.7791 0.7925 0.3254 0.1904 0.6957 0.2907 1.0727 0.2907s0.7472 -0.1003 1.0726 -0.2907c0.3255 -0.1903 0.5944 -0.4639 0.7792 -0.7925 0.0636 -0.1083 0.1546 -0.198 0.2637 -0.2601 0.1092 -0.0621 0.2327 -0.0945 0.3583 -0.094h0.8709c0.1904 0 0.3729 0.0757 0.5076 0.2103 0.1346 0.1346 0.2102 0.3171 0.2102 0.5075 0 0.1904 -0.0756 0.3729 -0.2102 0.5075 -0.1347 0.1346 -0.3172 0.2102 -0.5076 0.2102h-0.4785c-0.3306 0.451 -0.7629 0.8177 -1.2617 1.0705s-1.0501 0.3846 -1.6093 0.3846c-0.5592 0 -1.1105 -0.1318 -1.6093 -0.3846 -0.49884 -0.2528 -0.93108 -0.6195 -1.26173 -1.0705h-0.48808c-0.18797 -0.0024 -0.3677 -0.0775 -0.50151 -0.2095 -0.13382 -0.132 -0.21131 -0.3107 -0.21625 -0.4986Z" stroke-width="1"></path></svg>